<svg xmlns="http://www.w3.org/2000/svg" xmlns:xlink="http://www.w3.org/1999/xlink" width="50" zoomAndPan="magnify" viewBox="0 0 37.5 37.499999" height="50" preserveAspectRatio="xMidYMid meet" version="1.0"><defs><clipPath id="d844b169d2"><path d="M 6.957031 3.699219 L 30.34375 3.699219 L 30.34375 33.394531 L 6.957031 33.394531 Z M 6.957031 3.699219 " clip-rule="nonzero"/></clipPath><clipPath id="8ecd8a40c6"><path d="M 8.4375 3.699219 L 28.863281 3.699219 C 29.257812 3.699219 29.632812 3.855469 29.910156 4.132812 C 30.1875 4.410156 30.34375 4.789062 30.34375 5.179688 L 30.34375 31.824219 C 30.34375 32.21875 30.1875 32.59375 29.910156 32.871094 C 29.632812 33.148438 29.257812 33.304688 28.863281 33.304688 L 8.4375 33.304688 C 8.042969 33.304688 7.667969 33.148438 7.390625 32.871094 C 7.113281 32.59375 6.957031 32.21875 6.957031 31.824219 L 6.957031 5.179688 C 6.957031 4.789062 7.113281 4.410156 7.390625 4.132812 C 7.667969 3.855469 8.042969 3.699219 8.4375 3.699219 Z M 8.4375 3.699219 " clip-rule="nonzero"/></clipPath><clipPath id="dcc04ad66d"><path d="M 0.957031 0.699219 L 24.34375 0.699219 L 24.34375 30.394531 L 0.957031 30.394531 Z M 0.957031 0.699219 " clip-rule="nonzero"/></clipPath><clipPath id="61e7aadb9f"><path d="M 2.4375 0.699219 L 22.863281 0.699219 C 23.257812 0.699219 23.632812 0.855469 23.910156 1.132812 C 24.1875 1.410156 24.34375 1.789062 24.34375 2.179688 L 24.34375 28.824219 C 24.34375 29.21875 24.1875 29.59375 23.910156 29.871094 C 23.632812 30.148438 23.257812 30.304688 22.863281 30.304688 L 2.4375 30.304688 C 2.042969 30.304688 1.667969 30.148438 1.390625 29.871094 C 1.113281 29.59375 0.957031 29.21875 0.957031 28.824219 L 0.957031 2.179688 C 0.957031 1.789062 1.113281 1.410156 1.390625 1.132812 C 1.667969 0.855469 2.042969 0.699219 2.4375 0.699219 Z M 2.4375 0.699219 " clip-rule="nonzero"/></clipPath><clipPath id="f117940f53"><rect x="0" width="25" y="0" height="31"/></clipPath><clipPath id="56a1653fba"><path d="M 6.957031 3.699219 L 30.371094 3.699219 L 30.371094 33.304688 L 6.957031 33.304688 Z M 6.957031 3.699219 " clip-rule="nonzero"/></clipPath><clipPath id="b40dfca345"><path d="M 8.4375 3.703125 L 28.859375 3.703125 C 29.253906 3.703125 29.628906 3.859375 29.90625 4.136719 C 30.183594 4.414062 30.339844 4.792969 30.339844 5.183594 L 30.339844 31.824219 C 30.339844 32.214844 30.183594 32.59375 29.90625 32.871094 C 29.628906 33.148438 29.253906 33.304688 28.859375 33.304688 L 8.4375 33.304688 C 8.042969 33.304688 7.667969 33.148438 7.390625 32.871094 C 7.113281 32.59375 6.957031 32.214844 6.957031 31.824219 L 6.957031 5.183594 C 6.957031 4.792969 7.113281 4.414062 7.390625 4.136719 C 7.667969 3.859375 8.042969 3.703125 8.4375 3.703125 Z M 8.4375 3.703125 " clip-rule="nonzero"/></clipPath><clipPath id="d108c7f588"><path d="M 3.699219 3.699219 L 10.804688 3.699219 L 10.804688 33.316406 L 3.699219 33.316406 Z M 3.699219 3.699219 " clip-rule="nonzero"/></clipPath><clipPath id="eacaf7a253"><path d="M 5.179688 3.699219 L 9.324219 3.699219 C 9.71875 3.699219 10.09375 3.855469 10.371094 4.132812 C 10.648438 4.410156 10.804688 4.789062 10.804688 5.179688 L 10.804688 31.824219 C 10.804688 32.21875 10.648438 32.59375 10.371094 32.871094 C 10.09375 33.148438 9.71875 33.304688 9.324219 33.304688 L 5.179688 33.304688 C 4.789062 33.304688 4.410156 33.148438 4.132812 32.871094 C 3.855469 32.59375 3.699219 32.21875 3.699219 31.824219 L 3.699219 5.179688 C 3.699219 4.789062 3.855469 4.410156 4.132812 4.132812 C 4.410156 3.855469 4.789062 3.699219 5.179688 3.699219 Z M 5.179688 3.699219 " clip-rule="nonzero"/></clipPath><clipPath id="50a0465a49"><path d="M 0.699219 0.699219 L 7.804688 0.699219 L 7.804688 30.316406 L 0.699219 30.316406 Z M 0.699219 0.699219 " clip-rule="nonzero"/></clipPath><clipPath id="683981dc68"><path d="M 2.179688 0.699219 L 6.324219 0.699219 C 6.71875 0.699219 7.09375 0.855469 7.371094 1.132812 C 7.648438 1.410156 7.804688 1.789062 7.804688 2.179688 L 7.804688 28.824219 C 7.804688 29.21875 7.648438 29.59375 7.371094 29.871094 C 7.09375 30.148438 6.71875 30.304688 6.324219 30.304688 L 2.179688 30.304688 C 1.789062 30.304688 1.410156 30.148438 1.132812 29.871094 C 0.855469 29.59375 0.699219 29.21875 0.699219 28.824219 L 0.699219 2.179688 C 0.699219 1.789062 0.855469 1.410156 1.132812 1.132812 C 1.410156 0.855469 1.789062 0.699219 2.179688 0.699219 Z M 2.179688 0.699219 " clip-rule="nonzero"/></clipPath><clipPath id="9d7da0948c"><rect x="0" width="8" y="0" height="31"/></clipPath><clipPath id="8f811463f6"><path d="M 7.253906 3.699219 L 30.34375 3.699219 L 30.34375 7.550781 L 7.253906 7.550781 Z M 7.253906 3.699219 " clip-rule="nonzero"/></clipPath><clipPath id="758c492621"><path d="M 8.734375 3.699219 L 28.863281 3.699219 C 29.257812 3.699219 29.632812 3.855469 29.910156 4.132812 C 30.1875 4.410156 30.34375 4.789062 30.34375 5.179688 L 30.34375 6.070312 C 30.34375 6.460938 30.1875 6.839844 29.910156 7.117188 C 29.632812 7.394531 29.257812 7.550781 28.863281 7.550781 L 8.734375 7.550781 C 8.339844 7.550781 7.964844 7.394531 7.6875 7.117188 C 7.410156 6.839844 7.253906 6.460938 7.253906 6.070312 L 7.253906 5.179688 C 7.253906 4.789062 7.410156 4.410156 7.6875 4.132812 C 7.964844 3.855469 8.339844 3.699219 8.734375 3.699219 Z M 8.734375 3.699219 " clip-rule="nonzero"/></clipPath><clipPath id="10a22a2fc9"><path d="M 0.253906 0.699219 L 23.34375 0.699219 L 23.34375 4.550781 L 0.253906 4.550781 Z M 0.253906 0.699219 " clip-rule="nonzero"/></clipPath><clipPath id="7e7581214f"><path d="M 1.734375 0.699219 L 21.863281 0.699219 C 22.257812 0.699219 22.632812 0.855469 22.910156 1.132812 C 23.1875 1.410156 23.34375 1.789062 23.34375 2.179688 L 23.34375 3.070312 C 23.34375 3.460938 23.1875 3.839844 22.910156 4.117188 C 22.632812 4.394531 22.257812 4.550781 21.863281 4.550781 L 1.734375 4.550781 C 1.339844 4.550781 0.964844 4.394531 0.6875 4.117188 C 0.410156 3.839844 0.253906 3.460938 0.253906 3.070312 L 0.253906 2.179688 C 0.253906 1.789062 0.410156 1.410156 0.6875 1.132812 C 0.964844 0.855469 1.339844 0.699219 1.734375 0.699219 Z M 1.734375 0.699219 " clip-rule="nonzero"/></clipPath><clipPath id="bb11f9fab7"><rect x="0" width="24" y="0" height="5"/></clipPath><clipPath id="ec6b48bd9e"><path d="M 5.105469 5.625 L 8.808594 5.625 L 8.808594 9.324219 L 5.105469 9.324219 Z M 5.105469 5.625 " clip-rule="nonzero"/></clipPath><clipPath id="37c7a1ebb5"><path d="M 6.585938 5.625 L 7.328125 5.625 C 7.71875 5.625 8.097656 5.78125 8.375 6.058594 C 8.652344 6.335938 8.808594 6.710938 8.808594 7.105469 L 8.808594 7.84375 C 8.808594 8.238281 8.652344 8.613281 8.375 8.890625 C 8.097656 9.167969 7.71875 9.324219 7.328125 9.324219 L 6.585938 9.324219 C 6.195312 9.324219 5.816406 9.167969 5.539062 8.890625 C 5.261719 8.613281 5.105469 8.238281 5.105469 7.84375 L 5.105469 7.105469 C 5.105469 6.710938 5.261719 6.335938 5.539062 6.058594 C 5.816406 5.78125 6.195312 5.625 6.585938 5.625 Z M 6.585938 5.625 " clip-rule="nonzero"/></clipPath><clipPath id="0da24f2c0b"><path d="M 0.105469 0.625 L 3.808594 0.625 L 3.808594 4.324219 L 0.105469 4.324219 Z M 0.105469 0.625 " clip-rule="nonzero"/></clipPath><clipPath id="64d73a3ae2"><path d="M 1.585938 0.625 L 2.328125 0.625 C 2.71875 0.625 3.097656 0.78125 3.375 1.058594 C 3.652344 1.335938 3.808594 1.710938 3.808594 2.105469 L 3.808594 2.84375 C 3.808594 3.238281 3.652344 3.613281 3.375 3.890625 C 3.097656 4.167969 2.71875 4.324219 2.328125 4.324219 L 1.585938 4.324219 C 1.195312 4.324219 0.816406 4.167969 0.539062 3.890625 C 0.261719 3.613281 0.105469 3.238281 0.105469 2.84375 L 0.105469 2.105469 C 0.105469 1.710938 0.261719 1.335938 0.539062 1.058594 C 0.816406 0.78125 1.195312 0.625 1.585938 0.625 Z M 1.585938 0.625 " clip-rule="nonzero"/></clipPath><clipPath id="2adf38aa61"><rect x="0" width="4" y="0" height="5"/></clipPath><clipPath id="184fdc6733"><path d="M 12.0625 14.210938 L 25.246094 14.210938 L 25.246094 17.910156 L 12.0625 17.910156 Z M 12.0625 14.210938 " clip-rule="nonzero"/></clipPath><clipPath id="67acdb01f4"><path d="M 13.542969 14.210938 L 23.757812 14.210938 C 24.152344 14.210938 24.527344 14.367188 24.804688 14.644531 C 25.082031 14.921875 25.238281 15.296875 25.238281 15.691406 L 25.238281 16.429688 C 25.238281 16.824219 25.082031 17.199219 24.804688 17.476562 C 24.527344 17.753906 24.152344 17.910156 23.757812 17.910156 L 13.542969 17.910156 C 13.152344 17.910156 12.773438 17.753906 12.496094 17.476562 C 12.21875 17.199219 12.0625 16.824219 12.0625 16.429688 L 12.0625 15.691406 C 12.0625 15.296875 12.21875 14.921875 12.496094 14.644531 C 12.773438 14.367188 13.152344 14.210938 13.542969 14.210938 Z M 13.542969 14.210938 " clip-rule="nonzero"/></clipPath><clipPath id="554fb0fb79"><path d="M 0.0625 0.210938 L 13.246094 0.210938 L 13.246094 3.910156 L 0.0625 3.910156 Z M 0.0625 0.210938 " clip-rule="nonzero"/></clipPath><clipPath id="4ebba06f11"><path d="M 1.542969 0.210938 L 11.757812 0.210938 C 12.152344 0.210938 12.527344 0.367188 12.804688 0.644531 C 13.082031 0.921875 13.238281 1.296875 13.238281 1.691406 L 13.238281 2.429688 C 13.238281 2.824219 13.082031 3.199219 12.804688 3.476562 C 12.527344 3.753906 12.152344 3.910156 11.757812 3.910156 L 1.542969 3.910156 C 1.152344 3.910156 0.773438 3.753906 0.496094 3.476562 C 0.21875 3.199219 0.0625 2.824219 0.0625 2.429688 L 0.0625 1.691406 C 0.0625 1.296875 0.21875 0.921875 0.496094 0.644531 C 0.773438 0.367188 1.152344 0.210938 1.542969 0.210938 Z M 1.542969 0.210938 " clip-rule="nonzero"/></clipPath><clipPath id="d06266a7f9"><rect x="0" width="14" y="0" height="4"/></clipPath><clipPath id="854529092a"><path d="M 12.0625 19.390625 L 25.265625 19.390625 L 25.265625 28.125 L 12.0625 28.125 Z M 12.0625 19.390625 " clip-rule="nonzero"/></clipPath><clipPath id="7898f2fe9b"><path d="M 13.542969 19.390625 L 23.757812 19.390625 C 24.152344 19.390625 24.527344 19.546875 24.804688 19.824219 C 25.082031 20.101562 25.238281 20.480469 25.238281 20.871094 L 25.238281 26.644531 C 25.238281 27.039062 25.082031 27.414062 24.804688 27.691406 C 24.527344 27.96875 24.152344 28.125 23.757812 28.125 L 13.542969 28.125 C 13.152344 28.125 12.773438 27.96875 12.496094 27.691406 C 12.21875 27.414062 12.0625 27.039062 12.0625 26.644531 L 12.0625 20.871094 C 12.0625 20.480469 12.21875 20.101562 12.496094 19.824219 C 12.773438 19.546875 13.152344 19.390625 13.542969 19.390625 Z M 13.542969 19.390625 " clip-rule="nonzero"/></clipPath><clipPath id="00b9c1c4f8"><path d="M 0.0625 0.390625 L 13.265625 0.390625 L 13.265625 9.125 L 0.0625 9.125 Z M 0.0625 0.390625 " clip-rule="nonzero"/></clipPath><clipPath id="352cd4c0ee"><path d="M 1.542969 0.390625 L 11.757812 0.390625 C 12.152344 0.390625 12.527344 0.546875 12.804688 0.824219 C 13.082031 1.101562 13.238281 1.480469 13.238281 1.871094 L 13.238281 7.644531 C 13.238281 8.039062 13.082031 8.414062 12.804688 8.691406 C 12.527344 8.96875 12.152344 9.125 11.757812 9.125 L 1.542969 9.125 C 1.152344 9.125 0.773438 8.96875 0.496094 8.691406 C 0.21875 8.414062 0.0625 8.039062 0.0625 7.644531 L 0.0625 1.871094 C 0.0625 1.480469 0.21875 1.101562 0.496094 0.824219 C 0.773438 0.546875 1.152344 0.390625 1.542969 0.390625 Z M 1.542969 0.390625 " clip-rule="nonzero"/></clipPath><clipPath id="3c12b316ca"><rect x="0" width="14" y="0" height="10"/></clipPath><clipPath id="c1c9482915"><path d="M 12.0625 9.03125 L 27.164062 9.03125 L 27.164062 12.730469 L 12.0625 12.730469 Z M 12.0625 9.03125 " clip-rule="nonzero"/></clipPath><clipPath id="d9c99a106f"><path d="M 0.0625 0.03125 L 15.164062 0.03125 L 15.164062 3.730469 L 0.0625 3.730469 Z M 0.0625 0.03125 " clip-rule="nonzero"/></clipPath><clipPath id="ebb7244670"><rect x="0" width="16" y="0" height="4"/></clipPath></defs><g clip-path="url(#d844b169d2)"><g clip-path="url(#8ecd8a40c6)"><g transform="matrix(1, 0, 0, 1, 6, 3)"><g clip-path="url(#f117940f53)"><g clip-path="url(#dcc04ad66d)"><g clip-path="url(#61e7aadb9f)"><path fill="#ffffff" d="M 0.957031 0.699219 L 24.34375 0.699219 L 24.34375 30.300781 L 0.957031 30.300781 Z M 0.957031 0.699219 " fill-opacity="1" fill-rule="nonzero"/></g></g></g></g></g></g><g clip-path="url(#56a1653fba)"><g clip-path="url(#b40dfca345)"><path stroke-linecap="butt" transform="matrix(0.740131, 0, 0, 0.740131, 6.957236, 3.703584)" fill="none" stroke-linejoin="miter" d="M 2.000001 -0.000620501 L 29.592227 -0.000620501 C 30.125282 -0.000620501 30.631949 0.210491 31.006671 0.585213 C 31.381394 0.959935 31.592505 1.47188 31.592505 1.999658 L 31.592505 37.994107 C 31.592505 38.521885 31.381394 39.033829 31.006671 39.408551 C 30.631949 39.783274 30.125282 39.994385 29.592227 39.994385 L 2.000001 39.994385 C 1.466945 39.994385 0.960279 39.783274 0.585556 39.408551 C 0.210834 39.033829 -0.000277171 38.521885 -0.000277171 37.994107 L -0.000277171 1.999658 C -0.000277171 1.47188 0.210834 0.959935 0.585556 0.585213 C 0.960279 0.210491 1.466945 -0.000620501 2.000001 -0.000620501 Z M 2.000001 -0.000620501 " stroke="#d9d9d9" stroke-width="4" stroke-opacity="1" stroke-miterlimit="4"/></g></g><g clip-path="url(#d108c7f588)"><g clip-path="url(#eacaf7a253)"><g transform="matrix(1, 0, 0, 1, 3, 3)"><g clip-path="url(#9d7da0948c)"><g clip-path="url(#50a0465a49)"><g clip-path="url(#683981dc68)"><path fill="#d9d9d9" d="M 0.699219 0.699219 L 7.804688 0.699219 L 7.804688 30.316406 L 0.699219 30.316406 Z M 0.699219 0.699219 " fill-opacity="1" fill-rule="nonzero"/></g></g></g></g></g></g><g clip-path="url(#8f811463f6)"><g clip-path="url(#758c492621)"><g transform="matrix(1, 0, 0, 1, 7, 3)"><g clip-path="url(#bb11f9fab7)"><g clip-path="url(#10a22a2fc9)"><g clip-path="url(#7e7581214f)"><path fill="#d9d9d9" d="M 0.253906 0.699219 L 23.34375 0.699219 L 23.34375 4.550781 L 0.253906 4.550781 Z M 0.253906 0.699219 " fill-opacity="1" fill-rule="nonzero"/></g></g></g></g></g></g><g clip-path="url(#ec6b48bd9e)"><g clip-path="url(#37c7a1ebb5)"><g transform="matrix(1, 0, 0, 1, 5, 5)"><g clip-path="url(#2adf38aa61)"><g clip-path="url(#0da24f2c0b)"><g clip-path="url(#64d73a3ae2)"><path fill="#ffffff" d="M 0.105469 0.625 L 3.808594 0.625 L 3.808594 4.324219 L 0.105469 4.324219 Z M 0.105469 0.625 " fill-opacity="1" fill-rule="nonzero"/></g></g></g></g></g></g><g clip-path="url(#184fdc6733)"><g clip-path="url(#67acdb01f4)"><g transform="matrix(1, 0, 0, 1, 12, 14)"><g clip-path="url(#d06266a7f9)"><g clip-path="url(#554fb0fb79)"><g clip-path="url(#4ebba06f11)"><path fill="#d9d9d9" d="M 0.0625 0.210938 L 13.234375 0.210938 L 13.234375 3.910156 L 0.0625 3.910156 Z M 0.0625 0.210938 " fill-opacity="1" fill-rule="nonzero"/></g></g></g></g></g></g><g clip-path="url(#854529092a)"><g clip-path="url(#7898f2fe9b)"><g transform="matrix(1, 0, 0, 1, 12, 19)"><g clip-path="url(#3c12b316ca)"><g clip-path="url(#00b9c1c4f8)"><g clip-path="url(#352cd4c0ee)"><path fill="#d9d9d9" d="M 0.0625 0.390625 L 13.234375 0.390625 L 13.234375 9.125 L 0.0625 9.125 Z M 0.0625 0.390625 " fill-opacity="1" fill-rule="nonzero"/></g></g></g></g></g></g><g clip-path="url(#c1c9482915)"><g transform="matrix(1, 0, 0, 1, 12, 9)"><g clip-path="url(#ebb7244670)"><g clip-path="url(#d9c99a106f)"><path fill="#ff3131" d="M 0.0625 0.03125 L 15.15625 0.03125 L 15.15625 3.730469 L 0.0625 3.730469 Z M 0.0625 0.03125 " fill-opacity="1" fill-rule="nonzero"/></g></g></g></g><path stroke-linecap="butt" transform="matrix(0.740132, 0, 0, 0.740132, 5.106908, 10.731907)" fill="none" stroke-linejoin="miter" d="M -0.00194465 0.499445 L 5.302222 0.499445 " stroke="#ffffff" stroke-width="1" stroke-opacity="1" stroke-miterlimit="4"/><path stroke-linecap="butt" transform="matrix(0.740132, 0, 0, 0.740132, 5.106908, 12.952302)" fill="none" stroke-linejoin="miter" d="M -0.00194465 0.502501 L 5.302222 0.502501 " stroke="#ffffff" stroke-width="1" stroke-opacity="1" stroke-miterlimit="4"/><path stroke-linecap="butt" transform="matrix(0.740132, 0, 0, 0.740132, 5.106908, 15.172696)" fill="none" stroke-linejoin="miter" d="M -0.00194465 0.500279 L 5.302222 0.500279 " stroke="#ffffff" stroke-width="1" stroke-opacity="1" stroke-miterlimit="4"/><path stroke-linecap="butt" transform="matrix(0.740132, 0, 0, 0.740132, 5.106908, 17.393091)" fill="none" stroke-linejoin="miter" d="M -0.00194465 0.498057 L 5.302222 0.498057 " stroke="#ffffff" stroke-width="1" stroke-opacity="1" stroke-miterlimit="4"/></svg>