<svg xmlns="http://www.w3.org/2000/svg" xmlns:xlink="http://www.w3.org/1999/xlink" width="50" zoomAndPan="magnify" viewBox="0 0 37.5 37.499999" height="50" preserveAspectRatio="xMidYMid meet" version="1.0"><defs><filter x="0%" y="0%" width="100%" height="100%" id="64701f7b93"><feColorMatrix values="0 0 0 0 1 0 0 0 0 1 0 0 0 0 1 0 0 0 1 0" color-interpolation-filters="sRGB"/></filter><clipPath id="8b3a800133"><path d="M 2.738281 2.738281 L 34.304688 2.738281 L 34.304688 34.304688 L 2.738281 34.304688 Z M 2.738281 2.738281 " clip-rule="nonzero"/></clipPath><clipPath id="e12117824b"><path d="M 8.660156 2.738281 L 28.34375 2.738281 C 29.914062 2.738281 31.417969 3.363281 32.53125 4.472656 C 33.640625 5.582031 34.261719 7.089844 34.261719 8.660156 L 34.261719 28.34375 C 34.261719 29.914062 33.640625 31.417969 32.53125 32.53125 C 31.417969 33.640625 29.914062 34.261719 28.34375 34.261719 L 8.660156 34.261719 C 7.089844 34.261719 5.582031 33.640625 4.472656 32.53125 C 3.363281 31.417969 2.738281 29.914062 2.738281 28.34375 L 2.738281 8.660156 C 2.738281 7.089844 3.363281 5.582031 4.472656 4.472656 C 5.582031 3.363281 7.089844 2.738281 8.660156 2.738281 Z M 8.660156 2.738281 " clip-rule="nonzero"/></clipPath><clipPath id="93ff45700e"><path d="M 6.3125 9 L 28 9 L 28 30.890625 L 6.3125 30.890625 Z M 6.3125 9 " clip-rule="nonzero"/></clipPath><clipPath id="e3b2544393"><path d="M 20 6.464844 L 30.738281 6.464844 L 30.738281 17 L 20 17 Z M 20 6.464844 " clip-rule="nonzero"/></clipPath><mask id="8ed77b2110"><g filter="url(#64701f7b93)"><rect x="-3.75" width="45" fill="#000000" y="-3.75" height="44.999999" fill-opacity="0.1"/></g></mask><clipPath id="e51e5855a7"><path d="M 0.316406 0.15625 L 5 0.15625 L 5 4.65625 L 0.316406 4.65625 Z M 0.316406 0.15625 " clip-rule="nonzero"/></clipPath><clipPath id="0a5c290e47"><rect x="0" width="6" y="0" height="5"/></clipPath><clipPath id="2f2c43efad"><path d="M 6.3125 9 L 22 9 L 22 23 L 6.3125 23 Z M 6.3125 9 " clip-rule="nonzero"/></clipPath><mask id="5e7b84fa01"><g filter="url(#64701f7b93)"><rect x="-3.75" width="45" fill="#000000" y="-3.75" height="44.999999" fill-opacity="0.1"/></g></mask><clipPath id="87c5076c32"><path d="M 0.3125 0.238281 L 15.316406 0.238281 L 15.316406 13.5 L 0.3125 13.5 Z M 0.3125 0.238281 " clip-rule="nonzero"/></clipPath><clipPath id="95ada250fd"><rect x="0" width="16" y="0" height="14"/></clipPath><clipPath id="6eb1f1a16f"><path d="M 20 6.464844 L 28 6.464844 L 28 13 L 20 13 Z M 20 6.464844 " clip-rule="nonzero"/></clipPath><mask id="8e6d63f155"><g filter="url(#64701f7b93)"><rect x="-3.75" width="45" fill="#000000" y="-3.75" height="44.999999" fill-opacity="0.1"/></g></mask><clipPath id="9cc09c9b7c"><path d="M 0.367188 0.464844 L 7.949219 0.464844 L 7.949219 6.789062 L 0.367188 6.789062 Z M 0.367188 0.464844 " clip-rule="nonzero"/></clipPath><clipPath id="f0986fcdd4"><rect x="0" width="8" y="0" height="7"/></clipPath></defs><g clip-path="url(#8b3a800133)"><g clip-path="url(#e12117824b)"><path stroke-linecap="butt" transform="matrix(0.740132, 0, 0, 0.740132, 2.738487, 2.738487)" fill="none" stroke-linejoin="miter" d="M 8.000833 -0.000277525 L 34.595557 -0.000277525 C 36.717224 -0.000277525 38.749169 0.844167 40.253336 2.343056 C 41.752225 3.841945 42.591391 5.879167 42.591391 8.000834 L 42.591391 34.595558 C 42.591391 36.717225 41.752225 38.74917 40.253336 40.253336 C 38.749169 41.752225 36.717224 42.591392 34.595557 42.591392 L 8.000833 42.591392 C 5.879167 42.591392 3.841944 41.752225 2.343055 40.253336 C 0.844166 38.74917 -0.000278201 36.717225 -0.000278201 34.595558 L -0.000278201 8.000834 C -0.000278201 5.879167 0.844166 3.841945 2.343055 2.343056 C 3.841944 0.844167 5.879167 -0.000277525 8.000833 -0.000277525 Z M 8.000833 -0.000277525 " stroke="#000000" stroke-width="6" stroke-opacity="1" stroke-miterlimit="4"/></g></g><g clip-path="url(#93ff45700e)"><path fill="#000000" d="M 16.875 9.457031 C 18.679688 14.339844 22.53125 18.191406 27.410156 19.996094 C 22.53125 21.804688 18.679688 25.652344 16.875 30.535156 C 15.066406 25.652344 11.21875 21.804688 6.335938 19.996094 C 11.21875 18.191406 15.066406 14.339844 16.875 9.457031 Z M 16.875 9.457031 " fill-opacity="1" fill-rule="nonzero"/></g><g clip-path="url(#e3b2544393)"><path fill="#000000" d="M 25.589844 6.464844 C 25.898438 9.128906 28 11.234375 30.667969 11.539062 C 28 11.847656 25.898438 13.949219 25.589844 16.613281 C 25.285156 13.949219 23.179688 11.847656 20.515625 11.539062 C 23.179688 11.234375 25.285156 9.128906 25.589844 6.464844 Z M 25.589844 6.464844 " fill-opacity="1" fill-rule="nonzero"/></g><path fill="#000000" d="M 23.769531 24.160156 C 23.902344 25.320312 24.820312 26.238281 25.980469 26.371094 C 24.820312 26.503906 23.902344 27.421875 23.769531 28.582031 C 23.632812 27.421875 22.71875 26.503906 21.558594 26.371094 C 22.71875 26.238281 23.632812 25.320312 23.769531 24.160156 Z M 23.769531 24.160156 " fill-opacity="1" fill-rule="nonzero"/><g mask="url(#8ed77b2110)"><g transform="matrix(1, 0, 0, 1, 21, 24)"><g clip-path="url(#0a5c290e47)"><g clip-path="url(#e51e5855a7)"><path fill="#ffffff" d="M 2.769531 0.160156 C 2.902344 1.320312 3.820312 2.238281 4.980469 2.371094 C 3.820312 2.503906 2.902344 3.421875 2.769531 4.582031 C 2.632812 3.421875 1.71875 2.503906 0.558594 2.371094 C 1.71875 2.238281 2.632812 1.320312 2.769531 0.160156 Z M 2.769531 0.160156 " fill-opacity="1" fill-rule="nonzero"/></g></g></g></g><g clip-path="url(#2f2c43efad)"><g mask="url(#5e7b84fa01)"><g transform="matrix(1, 0, 0, 1, 6, 9)"><g clip-path="url(#95ada250fd)"><g clip-path="url(#87c5076c32)"><path fill="#ffffff" d="M 15.128906 7.015625 C 13.261719 5.191406 11.800781 2.960938 10.875 0.460938 C 9.066406 5.339844 5.21875 9.191406 0.335938 10.996094 C 1.867188 11.5625 3.300781 12.332031 4.597656 13.269531 C 7.003906 10.0625 10.761719 7.757812 15.128906 7.015625 Z M 15.128906 7.015625 " fill-opacity="1" fill-rule="nonzero"/></g></g></g></g></g><g clip-path="url(#6eb1f1a16f)"><g mask="url(#8e6d63f155)"><g transform="matrix(1, 0, 0, 1, 20, 6)"><g clip-path="url(#f0986fcdd4)"><g clip-path="url(#9cc09c9b7c)"><path fill="#ffffff" d="M 7.863281 4.421875 C 6.628906 3.496094 5.777344 2.085938 5.589844 0.464844 C 5.285156 3.128906 3.179688 5.234375 0.515625 5.539062 C 1.574219 5.664062 2.539062 6.066406 3.34375 6.675781 C 4.65625 5.632812 6.191406 4.855469 7.863281 4.421875 Z M 7.863281 4.421875 " fill-opacity="1" fill-rule="nonzero"/></g></g></g></g></g><path fill="#f4efdc" d="M 17.5 17.207031 L 15.695312 22.078125 L 16.878906 22.078125 C 16.878906 22.078125 17.179688 21.273438 17.179688 21.273438 L 19.027344 21.273438 C 19.027344 21.273438 19.332031 22.078125 19.332031 22.078125 L 20.515625 22.078125 C 20.515625 22.078125 18.710938 17.207031 18.710938 17.207031 Z M 17.539062 20.292969 L 18.109375 18.78125 L 18.664062 20.292969 Z M 17.539062 20.292969 " fill-opacity="1" fill-rule="nonzero"/><path fill="#f4efdc" d="M 13.828125 17.207031 L 14.988281 17.207031 L 14.988281 22.078125 L 13.828125 22.078125 Z M 13.828125 17.207031 " fill-opacity="1" fill-rule="nonzero"/></svg>